<?xml version="1.0" encoding="UTF-8"?>
<!DOCTYPE svg PUBLIC "-//W3C//DTD SVG 1.1//EN" "http://www.w3.org/Graphics/SVG/1.1/DTD/svg11.dtd">
<!-- Creator: CorelDRAW 2019 (64-Bit) -->
<svg xmlns="http://www.w3.org/2000/svg" xml:space="preserve" width="50px" height="50px" version="1.1" style="shape-rendering:geometricPrecision; text-rendering:geometricPrecision; image-rendering:optimizeQuality; fill-rule:evenodd; clip-rule:evenodd"
viewBox="0 0 0.45 0.45"
 xmlns:xlink="http://www.w3.org/1999/xlink">
 <defs>
  <style type="text/css">
   <![CDATA[
    .fil0 {fill:white}
   ]]>
  </style>
 </defs>
 <g id="Layer_x0020_1">
  <metadata id="CorelCorpID_0Corel-Layer"/>
  <path class="fil0" d="M0.22 0c0.13,0 0.23,0.1 0.23,0.22 0,0.13 -0.1,0.23 -0.23,0.23 -0.12,0 -0.22,-0.1 -0.22,-0.23 0,-0.12 0.1,-0.22 0.22,-0.22zm-0.02 0.24l0.05 0 0 0.01 0.06 -0.04 -0.06 -0.04 0 0.01 -0.05 0 0 0.06zm-0.1 0.06l0.04 0 0.01 0.02 -0.05 -0.02zm-0.02 -0.04l0.05 0 0.01 0.02 -0.06 -0.02zm-0.02 -0.04l0.06 0 0.01 0.03 -0.07 -0.03zm-0.02 -0.04l0.08 0 0 0.03 -0.08 -0.03zm0.29 0.16c0.02,0 0.03,0.01 0.03,0.02 0,0.01 -0.01,0.02 -0.03,0.02 -0.01,0 -0.02,-0.01 -0.02,-0.02 0,-0.01 0.01,-0.02 0.02,-0.02zm-0.13 0c0.01,0 0.02,0.01 0.02,0.02 0,0.01 -0.01,0.02 -0.02,0.02 -0.01,0 -0.02,-0.01 -0.02,-0.02 0,-0.01 0.01,-0.02 0.02,-0.02zm-0.12 -0.22c0.01,0.01 0.03,0 0.04,0.01 0.01,0.04 0.02,0.09 0.03,0.13 0.01,0.02 0.01,0.06 0.02,0.06 0.01,0.01 0.14,0.01 0.16,0.01 0.01,0 0.03,0 0.04,-0.01 0,0 0,-0.02 -0.02,-0.02 -0.06,0 -0.11,0 -0.17,0l0 -0.01c0.05,-0.01 0.1,-0.01 0.14,-0.02 0.03,0 0.06,0 0.06,-0.01 0.01,-0.02 0.01,-0.05 0.02,-0.07 0.01,-0.06 0.01,-0.05 -0.09,-0.05 -0.06,0 -0.11,0 -0.16,0 0,-0.02 0,-0.04 -0.03,-0.04 -0.01,0 -0.03,0 -0.04,0 -0.01,0 -0.01,0.01 0,0.02l0 0zm0.1 0.15c0.05,-0.01 0.11,-0.01 0.16,-0.02 0.02,0 0.02,0 0.03,-0.02 0,-0.02 0,-0.03 0,-0.04 0.01,-0.02 0.01,-0.03 -0.02,-0.03 -0.02,0 -0.04,0 -0.04,0 -0.05,0 -0.11,0 -0.16,0l0.03 0.11z"/>
 </g>
</svg>
