<?xml version="1.0" encoding="UTF-8"?>
<!DOCTYPE svg PUBLIC "-//W3C//DTD SVG 1.1//EN" "http://www.w3.org/Graphics/SVG/1.1/DTD/svg11.dtd">
<!-- Creator: CorelDRAW 2019 (64-Bit) -->
<svg xmlns="http://www.w3.org/2000/svg" xml:space="preserve" width="50px" height="50px" version="1.1" style="shape-rendering:geometricPrecision; text-rendering:geometricPrecision; image-rendering:optimizeQuality; fill-rule:evenodd; clip-rule:evenodd"
viewBox="0 0 0.46 0.46"
 xmlns:xlink="http://www.w3.org/1999/xlink">
 <defs>
  <style type="text/css">
   <![CDATA[
    .fil0 {fill:white}
   ]]>
  </style>
 </defs>
 <g id="Layer_x0020_1">
  <metadata id="CorelCorpID_0Corel-Layer"/>
  <path class="fil0" d="M0.23 0c0.13,0 0.23,0.1 0.23,0.23 0,0.13 -0.1,0.23 -0.23,0.23 -0.13,0 -0.23,-0.1 -0.23,-0.23 0,-0.13 0.1,-0.23 0.23,-0.23zm0.08 0.35c0.02,0 0.03,0.01 0.03,0.02 0,0.01 -0.01,0.02 -0.03,0.02 -0.01,0 -0.02,-0.01 -0.02,-0.02 0,-0.01 0.01,-0.02 0.02,-0.02zm-0.13 0c0.01,0 0.02,0.01 0.02,0.02 0,0.01 -0.01,0.02 -0.02,0.02 -0.01,0 -0.03,-0.01 -0.03,-0.02 0,-0.01 0.02,-0.02 0.03,-0.02zm-0.13 -0.23c0.01,0.01 0.04,0.01 0.05,0.01 0.01,0.05 0.02,0.09 0.03,0.14 0,0.01 0.01,0.06 0.02,0.06 0.01,0.01 0.14,0.01 0.16,0.01 0.01,0 0.03,0 0.04,-0.01 0,0 0.01,-0.02 -0.02,-0.02 -0.06,0 -0.11,0 -0.17,0l0 -0.01c0.05,-0.01 0.1,-0.01 0.15,-0.02 0.02,0 0.05,0 0.05,-0.02 0.01,-0.02 0.02,-0.05 0.02,-0.06 0.01,-0.07 0.01,-0.06 -0.09,-0.06 -0.06,0 -0.11,0 -0.16,0 -0.01,-0.02 -0.01,-0.03 -0.03,-0.03 -0.01,0 -0.03,-0.01 -0.04,0 -0.01,0 -0.01,0.01 -0.01,0.01l0 0zm0.1 0.15c0.06,0 0.12,-0.01 0.17,-0.01 0.03,-0.01 0.02,-0.01 0.03,-0.03 0,-0.01 0,-0.02 0.01,-0.04 0,-0.02 0,-0.02 -0.03,-0.02 -0.02,0 -0.04,0 -0.04,0 -0.05,0 -0.11,0 -0.16,0l0.02 0.1z"/>
 </g>
</svg>
