<?xml version="1.0" encoding="UTF-8" standalone="no"?>
<svg
   xmlns:dc="http://purl.org/dc/elements/1.1/"
   xmlns:cc="http://creativecommons.org/ns#"
   xmlns:rdf="http://www.w3.org/1999/02/22-rdf-syntax-ns#"
   xmlns:svg="http://www.w3.org/2000/svg"
   xmlns="http://www.w3.org/2000/svg"
   width="33.299999mm"
   height="33mm"
   viewBox="0 0 33.299999 33"
   version="1.1"
   id="svg1262">
  <defs
     id="defs1256" />
  <metadata
     id="metadata1259">
    <rdf:RDF>
      <cc:Work
         rdf:about="">
        <dc:format>image/svg+xml</dc:format>
        <dc:type
           rdf:resource="http://purl.org/dc/dcmitype/StillImage" />
        <dc:title></dc:title>
      </cc:Work>
    </rdf:RDF>
  </metadata>
  <g
     id="layer1">
    <g
       id="g940"
       transform="matrix(0.99945686,0,0,0.99947802,-90.636938,-52.861313)">
      <g
         id="g1220"
         transform="matrix(0.35277777,0,0,-0.35277777,-180.8845,234.72034)">
        <path
           d="m 817.02871,420.98466 c -26.08,0 -47.222,21.141 -47.222,47.221 0,26.08 21.142,47.222 47.222,47.222 26.08,0 47.223,-21.142 47.223,-47.222 0,-26.08 -21.143,-47.221 -47.223,-47.221"
           style="fill:#ffffff;fill-opacity:1;fill-rule:nonzero;stroke:none;stroke-width:0.1"
           id="path42" />
        <path
           d="m 798.52271,443.60466 v 51.27 h 31.534 v -8.795 c 0,-0.711 0.576,-1.287 1.287,-1.287 h 7.294 v -41.188 z m 34.108,48.939 4.614,-5.177 h -4.614 z m 8.255,-5.393 -8.795,9.868 c -0.244,0.274 -0.594,0.43 -0.96,0.43 h -33.895 c -0.711,0 -1.288,-0.576 -1.288,-1.287 v -53.844 c 0,-0.711 0.577,-1.288 1.288,-1.288 h 42.689 c 0.711,0 1.288,0.577 1.288,1.288 v 43.976 c 0,0.317 -0.116,0.621 -0.327,0.857"
           style="fill:#000000;fill-opacity:1;fill-rule:nonzero;stroke:none;stroke-width:0.1"
           id="path114" />
        <path
           d="m 832.41771,480.50266 h -28.104 c -0.711,0 -1.287,-0.576 -1.287,-1.287 0,-0.711 0.576,-1.287 1.287,-1.287 h 28.104 c 0.71,0 1.286,0.576 1.286,1.287 0,0.711 -0.576,1.287 -1.286,1.287"
           style="fill:#000000;fill-opacity:1;fill-rule:nonzero;stroke:none;stroke-width:0.1"
           id="path116" />
        <path
           d="m 832.41771,470.15166 h -28.104 c -0.711,0 -1.287,-0.577 -1.287,-1.288 0,-0.71 0.576,-1.287 1.287,-1.287 h 28.104 c 0.71,0 1.286,0.577 1.286,1.287 0,0.711 -0.576,1.288 -1.286,1.288"
           style="fill:#000000;fill-opacity:1;fill-rule:nonzero;stroke:none;stroke-width:0.1"
           id="path118" />
        <path
           d="m 832.41771,458.67466 h -28.104 c -0.711,0 -1.287,-0.576 -1.287,-1.287 0,-0.711 0.576,-1.287 1.287,-1.287 h 28.104 c 0.71,0 1.286,0.576 1.286,1.287 0,0.711 -0.576,1.287 -1.286,1.287"
           style="fill:#000000;fill-opacity:1;fill-rule:nonzero;stroke:none;stroke-width:0.1"
           id="path120" />
      </g>
    </g>
  </g>
</svg>
