<?xml version="1.0" encoding="UTF-8"?>
<!DOCTYPE svg PUBLIC "-//W3C//DTD SVG 1.1//EN" "http://www.w3.org/Graphics/SVG/1.1/DTD/svg11.dtd">
<!-- Creator: CorelDRAW 2019 (64-Bit) -->
<svg xmlns="http://www.w3.org/2000/svg" xml:space="preserve" width="2.2619mm" height="2.2517mm" version="1.1" shape-rendering="geometricPrecision" text-rendering="geometricPrecision" image-rendering="optimizeQuality" fill-rule="evenodd" clip-rule="evenodd"
viewBox="0 0 26.99 26.87"
 xmlns:xlink="http://www.w3.org/1999/xlink">
 <g id="Layer_x0020_1">
  <metadata id="CorelCorpID_0Corel-Layer"/>
  <path fill="white" d="M11.23 16.36c-0.63,-0.07 -2.88,0.09 -3.25,-0.05 -0.01,-0.06 -0.06,-3.43 0,-3.69l0.03 -0.06 3.21 -0.01c0.11,-0.83 -0.09,-2.56 0.09,-3.8 0.31,-2.16 1.74,-3.62 3.89,-3.9 0.53,-0.07 3.44,-0.07 3.76,0.1 0.06,0.08 0.05,-0.11 0.06,0.13l-0.01 3.21c-0.23,0.08 -1.8,0.06 -2.14,0.04 -0.99,-0.08 -1.56,0.43 -1.69,1.26 -0.07,0.46 -0.09,2.48 -0.03,2.95l3.72 0.01 -0.48 3.74c-0.31,0.13 -2.67,-0.01 -3.25,0.04l-0.01 10.55c1.44,-0.03 3.86,-0.97 4.9,-1.58 1.2,-0.7 1.43,-0.91 2.36,-1.67 0.92,-0.75 1.98,-2.09 2.61,-3.09 2.36,-3.75 2.65,-8.9 0.65,-12.89 -0.39,-0.77 -0.75,-1.37 -1.21,-2.03l-1.09 -1.34c-2.37,-2.57 -5.93,-4.21 -9.51,-4.28 -7.37,-0.13 -13.13,5.37 -13.79,12.12 -0.19,1.97 0.05,3.99 0.64,5.69 0.57,1.64 1.3,2.88 2.33,4.19 0.24,0.3 0.5,0.62 0.74,0.85 0.16,0.15 0.27,0.25 0.41,0.39 0.17,0.18 0.26,0.23 0.44,0.4 0.39,0.39 1.36,1.04 1.87,1.36 0.96,0.62 3.36,1.69 4.76,1.77l-0.02 -10.42z"/>
 </g>
</svg>
