<?xml version="1.0" encoding="UTF-8"?>
<!DOCTYPE svg PUBLIC "-//W3C//DTD SVG 1.1//EN" "http://www.w3.org/Graphics/SVG/1.1/DTD/svg11.dtd">
<!-- Creator: CorelDRAW 2019 (64-Bit) -->
<svg xmlns="http://www.w3.org/2000/svg" xml:space="preserve" width="50px" height="50px" version="1.1" style="shape-rendering:geometricPrecision; text-rendering:geometricPrecision; image-rendering:optimizeQuality; fill-rule:evenodd; clip-rule:evenodd"
viewBox="0 0 3.92 3.92"
 xmlns:xlink="http://www.w3.org/1999/xlink">
 <defs>
  <style type="text/css">
   <![CDATA[
    .fil0 {fill:white;fill-rule:nonzero}
   ]]>
  </style>
 </defs>
 <g id="Layer_x0020_1">
  <metadata id="CorelCorpID_0Corel-Layer"/>
  <path class="fil0" d="M0 1.85l0 0.23c0.01,0.02 0.02,0.16 0.03,0.2 0.01,0.07 0.02,0.13 0.04,0.19 0.17,0.65 0.71,1.2 1.36,1.38 0.07,0.01 0.13,0.03 0.2,0.04 0.03,0 0.17,0.01 0.2,0.03l0.22 0c0.02,-0.01 0.17,-0.02 0.21,-0.03 0.64,-0.09 1.18,-0.5 1.46,-1.09 0.19,-0.37 0.18,-0.7 0.2,-0.73l0 -0.24c-0.03,-0.05 -0.01,-0.33 -0.2,-0.73 -0.11,-0.21 -0.22,-0.37 -0.38,-0.53 -0.09,-0.09 -0.15,-0.14 -0.26,-0.21 -0.23,-0.18 -0.52,-0.28 -0.81,-0.34 -0.04,0 -0.18,-0.01 -0.2,-0.02l-0.22 0c-0.01,0.01 -0.17,0.02 -0.21,0.03 -0.06,0.01 -0.12,0.02 -0.19,0.04 -0.11,0.02 -0.23,0.07 -0.33,0.12 -0.6,0.29 -0.98,0.8 -1.09,1.46 -0.01,0.03 -0.02,0.18 -0.03,0.2zm1.4 -1.28l1.11 0c0.46,0 0.83,0.38 0.83,0.83l0 1.11c0,0.46 -0.37,0.83 -0.83,0.83l-1.11 0c-0.45,0 -0.83,-0.37 -0.83,-0.83l0 -1.11c0,-0.45 0.38,-0.83 0.83,-0.83zm1.34 0.46c-0.09,0 -0.17,0.08 -0.17,0.18 0,0.09 0.08,0.17 0.17,0.17 0.1,0 0.18,-0.08 0.18,-0.17 0,-0.1 -0.08,-0.18 -0.18,-0.18zm-0.78 0.22c-0.39,0 -0.71,0.32 -0.71,0.71 0,0.39 0.32,0.7 0.71,0.7 0.39,0 0.7,-0.31 0.7,-0.7 0,-0.39 -0.31,-0.71 -0.7,-0.71zm0 0.2c-0.28,0 -0.51,0.23 -0.51,0.51 0,0.28 0.23,0.51 0.51,0.51 0.28,0 0.51,-0.23 0.51,-0.51 0,-0.28 -0.23,-0.51 -0.51,-0.51zm-0.57 -0.7l1.14 0c0.35,0 0.63,0.29 0.63,0.64l0 1.14c0,0.35 -0.28,0.63 -0.63,0.63l-1.14 0c-0.35,0 -0.64,-0.28 -0.64,-0.63l0 -1.14c0,-0.35 0.29,-0.64 0.64,-0.64z"/>
 </g>
</svg>
