<?xml version="1.0" encoding="UTF-8"?>
<!DOCTYPE svg PUBLIC "-//W3C//DTD SVG 1.1//EN" "http://www.w3.org/Graphics/SVG/1.1/DTD/svg11.dtd">
<!-- Creator: CorelDRAW 2019 (64-Bit) -->
<svg xmlns="http://www.w3.org/2000/svg" xml:space="preserve" width="50px" height="50px" version="1.1" style="shape-rendering:geometricPrecision; text-rendering:geometricPrecision; image-rendering:optimizeQuality; fill-rule:evenodd; clip-rule:evenodd"
viewBox="0 0 3.92 3.92"
 xmlns:xlink="http://www.w3.org/1999/xlink">
 <defs>
  <style type="text/css">
   <![CDATA[
    .fil0 {fill:white;fill-rule:nonzero}
   ]]>
  </style>
 </defs>
 <g id="Layer_x0020_1">
  <metadata id="CorelCorpID_0Corel-Layer"/>
  <path class="fil0" d="M1.87 1.05c0.29,-0.05 0.52,0.15 0.56,0.4 0.05,0.29 -0.16,0.52 -0.39,0.56 -0.3,0.05 -0.53,-0.16 -0.57,-0.4 -0.05,-0.3 0.16,-0.52 0.4,-0.56zm-0.77 0.47c0,0.4 0.4,0.97 0.59,1.3 0.04,0.07 0.08,0.13 0.12,0.2 0.03,0.06 0.07,0.14 0.12,0.2l0.48 -0.78c0.14,-0.22 0.4,-0.6 0.4,-0.92 0,-0.44 -0.38,-0.82 -0.87,-0.82 -0.44,0 -0.84,0.38 -0.84,0.82zm0.86 -1.52c1.08,0 1.96,0.88 1.96,1.96 0,1.08 -0.88,1.96 -1.96,1.96 -1.08,0 -1.96,-0.88 -1.96,-1.96 0,-1.08 0.88,-1.96 1.96,-1.96z"/>
 </g>
</svg>
