<?xml version="1.0" encoding="UTF-8"?>
<!DOCTYPE svg PUBLIC "-//W3C//DTD SVG 1.1//EN" "http://www.w3.org/Graphics/SVG/1.1/DTD/svg11.dtd">
<!-- Creator: CorelDRAW 2019 (64-Bit) -->
<svg xmlns="http://www.w3.org/2000/svg" xml:space="preserve" width="450px" height="90px" version="1.1" style="shape-rendering:geometricPrecision; text-rendering:geometricPrecision; image-rendering:optimizeQuality; fill-rule:evenodd; clip-rule:evenodd"
viewBox="0 0 123.61 24.72"
 xmlns:xlink="http://www.w3.org/1999/xlink">
 <defs>
  <style type="text/css">
   <![CDATA[
    .fil2 {fill:black}
    .fil0 {fill:#FF6600}
    .fil3 {fill:white}
    .fil1 {fill:white;fill-rule:nonzero}
    .fil4 {fill:url(#id0)}
   ]]>
  </style>
  <radialGradient id="id0" gradientUnits="userSpaceOnUse" gradientTransform="matrix(1.58743 -0.00276617 0.0723813 1.44147 -13 -6)" cx="20.99" cy="12.84" r="35.89" fx="20.99" fy="12.84">
   <stop offset="0" style="stop-opacity:1; stop-color:white"/>
   <stop offset="0.509804" style="stop-opacity:1; stop-color:#B6B7B8"/>
   <stop offset="1" style="stop-opacity:1; stop-color:#6E6F71"/>
  </radialGradient>
 </defs>
 <g id="Layer_x0020_1">
  <metadata id="CorelCorpID_0Corel-Layer"/>
  <rect class="fil0" x="69.9" width="53.71" height="24.72"/>
  <path class="fil1" d="M76.5 7.84l3.81 0c0.95,0 1.8,0.19 2.54,0.57 0.74,0.38 1.32,0.91 1.72,1.59 0.41,0.69 0.62,1.47 0.62,2.36 0,0.89 -0.21,1.67 -0.62,2.36 -0.4,0.68 -0.98,1.21 -1.72,1.59 -0.74,0.38 -1.59,0.57 -2.54,0.57l-3.81 0 0 -9.04zm3.73 7.92c0.73,0 1.37,-0.15 1.93,-0.43 0.55,-0.28 0.98,-0.68 1.28,-1.19 0.31,-0.52 0.46,-1.11 0.46,-1.78 0,-0.67 -0.15,-1.26 -0.46,-1.77 -0.3,-0.52 -0.73,-0.91 -1.28,-1.2 -0.56,-0.28 -1.2,-0.42 -1.93,-0.42l-2.44 0 0 6.79 2.44 0z"/>
  <polygon id="1" class="fil1" points="93.72,15.76 93.72,16.88 87.16,16.88 87.16,7.84 93.54,7.84 93.54,8.97 88.45,8.97 88.45,11.74 92.99,11.74 92.99,12.84 88.45,12.84 88.45,15.76 "/>
  <polygon id="2" class="fil1" points="104.19,16.88 104.18,10.3 100.91,15.78 100.32,15.78 97.05,10.33 97.05,16.88 95.81,16.88 95.81,7.84 96.87,7.84 100.64,14.19 104.36,7.84 105.42,7.84 105.43,16.88 "/>
  <path id="3" class="fil1" d="M112.22 16.98c-0.91,0 -1.73,-0.2 -2.46,-0.6 -0.73,-0.4 -1.31,-0.95 -1.73,-1.66 -0.41,-0.7 -0.62,-1.49 -0.62,-2.36 0,-0.87 0.21,-1.66 0.62,-2.36 0.42,-0.71 1,-1.26 1.73,-1.66 0.73,-0.4 1.55,-0.6 2.46,-0.6 0.91,0 1.73,0.2 2.46,0.6 0.73,0.4 1.3,0.95 1.71,1.65 0.42,0.7 0.62,1.49 0.62,2.37 0,0.88 -0.2,1.67 -0.62,2.37 -0.41,0.7 -0.98,1.25 -1.71,1.65 -0.73,0.4 -1.55,0.6 -2.46,0.6zm0 -1.15c0.67,0 1.26,-0.15 1.79,-0.45 0.53,-0.3 0.95,-0.71 1.25,-1.24 0.31,-0.53 0.46,-1.12 0.46,-1.78 0,-0.65 -0.15,-1.24 -0.46,-1.77 -0.3,-0.53 -0.72,-0.95 -1.25,-1.25 -0.53,-0.3 -1.12,-0.45 -1.79,-0.45 -0.66,0 -1.26,0.15 -1.8,0.45 -0.54,0.3 -0.96,0.72 -1.26,1.25 -0.31,0.53 -0.46,1.12 -0.46,1.77 0,0.66 0.15,1.25 0.46,1.78 0.3,0.53 0.72,0.94 1.26,1.24 0.54,0.3 1.14,0.45 1.8,0.45z"/>
  <rect class="fil2" width="69.9" height="24.72"/>
  <g id="_1988728748496">
   <g>
    <path class="fil1" d="M29.46 5.63l0.56 -2.66 1.11 0c0.19,0 0.33,0.02 0.43,0.06 0.1,0.05 0.18,0.12 0.24,0.23 0.06,0.11 0.09,0.23 0.09,0.36 0,0.11 -0.02,0.22 -0.06,0.34 -0.05,0.11 -0.1,0.2 -0.17,0.28 -0.07,0.07 -0.14,0.13 -0.21,0.16 -0.07,0.04 -0.15,0.07 -0.23,0.09 -0.17,0.04 -0.34,0.06 -0.51,0.06l-0.67 0 -0.23 1.08 -0.35 0zm0.64 -1.38l0.59 0c0.23,0 0.4,-0.03 0.5,-0.08 0.11,-0.05 0.2,-0.12 0.26,-0.22 0.07,-0.1 0.1,-0.21 0.1,-0.32 0,-0.09 -0.02,-0.16 -0.05,-0.21 -0.04,-0.06 -0.08,-0.1 -0.15,-0.12 -0.06,-0.03 -0.18,-0.04 -0.36,-0.04l-0.68 0 -0.21 0.99zm1.86 0.65c0,-0.38 0.11,-0.69 0.33,-0.94 0.19,-0.2 0.43,-0.3 0.72,-0.3 0.24,0 0.42,0.07 0.57,0.22 0.14,0.14 0.21,0.34 0.21,0.58 0,0.23 -0.05,0.43 -0.14,0.62 -0.09,0.19 -0.21,0.34 -0.38,0.44 -0.16,0.1 -0.34,0.15 -0.52,0.15 -0.15,0 -0.29,-0.03 -0.41,-0.09 -0.12,-0.07 -0.22,-0.16 -0.28,-0.28 -0.07,-0.11 -0.1,-0.25 -0.1,-0.4zm0.33 -0.04c0,0.19 0.04,0.32 0.13,0.42 0.09,0.09 0.2,0.14 0.33,0.14 0.08,0 0.15,-0.02 0.21,-0.04 0.07,-0.03 0.14,-0.08 0.2,-0.13 0.06,-0.06 0.11,-0.13 0.15,-0.2 0.04,-0.08 0.08,-0.16 0.1,-0.24 0.04,-0.12 0.06,-0.24 0.06,-0.35 0,-0.17 -0.05,-0.31 -0.13,-0.4 -0.09,-0.1 -0.2,-0.15 -0.34,-0.15 -0.1,0 -0.19,0.03 -0.28,0.08 -0.09,0.04 -0.16,0.12 -0.23,0.21 -0.07,0.09 -0.12,0.2 -0.15,0.33 -0.03,0.13 -0.05,0.24 -0.05,0.33zm2.05 0.77l-0.2 -1.93 0.32 0 0.08 0.87 0.03 0.49c0.01,0.03 0.01,0.1 0.02,0.21 0.04,-0.12 0.07,-0.21 0.09,-0.28 0.03,-0.06 0.07,-0.16 0.12,-0.28l0.47 -1.01 0.35 0 0.07 0.97c0.01,0.14 0.01,0.34 0.02,0.58 0.05,-0.16 0.15,-0.38 0.29,-0.67l0.41 -0.88 0.34 0 -0.95 1.93 -0.34 0 -0.07 -1.13c-0.01,-0.07 -0.01,-0.21 -0.02,-0.41 -0.05,0.13 -0.11,0.27 -0.17,0.42l-0.51 1.12 -0.35 0zm3.74 -0.65l0.32 0.03c-0.04,0.15 -0.15,0.3 -0.32,0.45 -0.16,0.14 -0.36,0.21 -0.59,0.21 -0.14,0 -0.27,-0.03 -0.39,-0.1 -0.12,-0.06 -0.21,-0.16 -0.28,-0.28 -0.06,-0.13 -0.09,-0.27 -0.09,-0.43 0,-0.21 0.05,-0.42 0.15,-0.62 0.09,-0.19 0.22,-0.34 0.38,-0.44 0.15,-0.09 0.32,-0.14 0.5,-0.14 0.23,0 0.42,0.07 0.55,0.21 0.14,0.14 0.21,0.34 0.21,0.59 0,0.09 -0.01,0.19 -0.03,0.29l-1.42 0c-0.01,0.03 -0.01,0.07 -0.01,0.1 0,0.18 0.04,0.32 0.13,0.41 0.08,0.1 0.18,0.14 0.3,0.14 0.12,0 0.23,-0.03 0.34,-0.11 0.11,-0.07 0.19,-0.18 0.25,-0.31zm-0.96 -0.49l1.09 0c0,-0.03 0,-0.06 0,-0.07 0,-0.16 -0.04,-0.29 -0.12,-0.38 -0.09,-0.08 -0.19,-0.13 -0.32,-0.13 -0.14,0 -0.27,0.05 -0.39,0.15 -0.12,0.09 -0.2,0.24 -0.26,0.43zm1.61 1.14l0.4 -1.93 0.3 0 -0.09 0.39c0.1,-0.14 0.2,-0.25 0.3,-0.32 0.09,-0.08 0.19,-0.11 0.29,-0.11 0.06,0 0.15,0.02 0.24,0.07l-0.13 0.3c-0.06,-0.04 -0.12,-0.06 -0.19,-0.06 -0.12,0 -0.23,0.07 -0.36,0.19 -0.12,0.13 -0.21,0.36 -0.28,0.7l-0.17 0.77 -0.31 0zm2.66 -0.65l0.32 0.03c-0.05,0.15 -0.15,0.3 -0.32,0.45 -0.16,0.14 -0.36,0.21 -0.59,0.21 -0.14,0 -0.28,-0.03 -0.39,-0.1 -0.12,-0.06 -0.21,-0.16 -0.28,-0.28 -0.06,-0.13 -0.09,-0.27 -0.09,-0.43 0,-0.21 0.05,-0.42 0.14,-0.62 0.1,-0.19 0.23,-0.34 0.38,-0.44 0.16,-0.09 0.33,-0.14 0.51,-0.14 0.23,0 0.41,0.07 0.55,0.21 0.14,0.14 0.21,0.34 0.21,0.59 0,0.09 -0.01,0.19 -0.03,0.29l-1.42 0c-0.01,0.03 -0.01,0.07 -0.01,0.1 0,0.18 0.04,0.32 0.13,0.41 0.08,0.1 0.18,0.14 0.3,0.14 0.11,0 0.23,-0.03 0.34,-0.11 0.1,-0.07 0.19,-0.18 0.25,-0.31zm-0.96 -0.49l1.09 0c0,-0.03 0,-0.06 0,-0.07 0,-0.16 -0.04,-0.29 -0.12,-0.38 -0.09,-0.08 -0.19,-0.13 -0.32,-0.13 -0.15,0 -0.27,0.05 -0.39,0.15 -0.12,0.09 -0.2,0.24 -0.26,0.43zm2.91 0.86c-0.19,0.22 -0.39,0.32 -0.59,0.32 -0.18,0 -0.33,-0.07 -0.46,-0.2 -0.12,-0.13 -0.18,-0.33 -0.18,-0.59 0,-0.23 0.05,-0.45 0.15,-0.64 0.09,-0.19 0.21,-0.34 0.36,-0.44 0.14,-0.09 0.29,-0.14 0.43,-0.14 0.24,0 0.42,0.11 0.54,0.34l0.22 -1.03 0.33 0 -0.55 2.66 -0.31 0 0.06 -0.28zm-0.9 -0.53c0,0.13 0.01,0.24 0.04,0.32 0.03,0.08 0.07,0.14 0.14,0.19 0.06,0.05 0.14,0.08 0.23,0.08 0.15,0 0.28,-0.08 0.4,-0.23 0.17,-0.21 0.25,-0.46 0.25,-0.76 0,-0.16 -0.04,-0.27 -0.12,-0.36 -0.08,-0.09 -0.18,-0.13 -0.31,-0.13 -0.07,0 -0.15,0.02 -0.21,0.05 -0.07,0.04 -0.13,0.1 -0.19,0.18 -0.07,0.08 -0.12,0.19 -0.16,0.32 -0.05,0.13 -0.07,0.24 -0.07,0.34zm2.7 0.81l0.56 -2.66 0.33 0 -0.2 0.95c0.1,-0.1 0.19,-0.16 0.27,-0.2 0.09,-0.04 0.17,-0.06 0.26,-0.06 0.18,0 0.32,0.07 0.44,0.2 0.12,0.13 0.18,0.33 0.18,0.59 0,0.17 -0.03,0.32 -0.08,0.46 -0.04,0.15 -0.1,0.26 -0.17,0.36 -0.07,0.1 -0.14,0.17 -0.22,0.23 -0.07,0.06 -0.15,0.1 -0.23,0.13 -0.07,0.03 -0.15,0.04 -0.22,0.04 -0.12,0 -0.23,-0.03 -0.33,-0.1 -0.09,-0.06 -0.17,-0.17 -0.22,-0.3l-0.08 0.36 -0.29 0zm0.49 -0.79l0 0.06c0,0.17 0.04,0.29 0.11,0.38 0.08,0.08 0.17,0.12 0.29,0.12 0.11,0 0.21,-0.04 0.31,-0.12 0.09,-0.08 0.17,-0.2 0.23,-0.37 0.06,-0.17 0.09,-0.33 0.09,-0.48 0,-0.16 -0.04,-0.28 -0.12,-0.37 -0.07,-0.09 -0.17,-0.14 -0.28,-0.14 -0.11,0 -0.22,0.05 -0.32,0.14 -0.09,0.09 -0.17,0.23 -0.24,0.42 -0.05,0.14 -0.07,0.26 -0.07,0.36zm1.46 1.53l0.02 -0.31c0.06,0.02 0.13,0.03 0.19,0.03 0.07,0 0.13,-0.01 0.17,-0.04 0.05,-0.04 0.11,-0.12 0.17,-0.23l0.11 -0.19 -0.32 -1.93 0.32 0 0.15 0.97c0.02,0.19 0.05,0.38 0.07,0.58l0.86 -1.55 0.34 0 -1.23 2.18c-0.11,0.22 -0.22,0.36 -0.31,0.43 -0.09,0.07 -0.2,0.1 -0.32,0.1 -0.08,0 -0.15,-0.01 -0.22,-0.04z"/>
    <path class="fil1" d="M31.28 16.01c-0.47,0 -0.81,-0.09 -1.02,-0.28 -0.22,-0.2 -0.33,-0.51 -0.34,-0.96 -0.02,-0.2 -0.02,-0.39 -0.02,-0.58 0.01,-0.18 0.02,-0.38 0.03,-0.59l0.74 0c-0.01,0.23 -0.02,0.45 -0.02,0.66 0,0.21 0,0.42 0.02,0.63 0.01,0.17 0.06,0.29 0.16,0.36 0.09,0.07 0.24,0.1 0.45,0.1 0.2,0 0.34,-0.03 0.43,-0.1 0.1,-0.07 0.15,-0.19 0.16,-0.36 0.01,-0.17 0.02,-0.35 0.02,-0.54 -0.01,-0.19 -0.01,-0.37 -0.02,-0.53 -0.01,-0.19 -0.05,-0.34 -0.14,-0.44 -0.08,-0.11 -0.2,-0.18 -0.37,-0.22l-0.52 -0.12c-0.35,-0.09 -0.6,-0.24 -0.73,-0.45 -0.14,-0.21 -0.21,-0.52 -0.22,-0.92 0,-0.16 0,-0.32 0,-0.48 0,-0.17 0,-0.33 0.01,-0.51 0.02,-0.44 0.13,-0.75 0.34,-0.94 0.21,-0.19 0.56,-0.28 1.04,-0.28 0.46,0 0.8,0.09 1,0.28 0.21,0.19 0.33,0.51 0.34,0.95 0.01,0.16 0.01,0.33 0.01,0.52 -0.01,0.19 -0.01,0.38 -0.02,0.58l-0.75 0c0.01,-0.23 0.02,-0.44 0.02,-0.64 0,-0.19 -0.01,-0.39 -0.01,-0.58 -0.01,-0.16 -0.06,-0.28 -0.15,-0.35 -0.1,-0.07 -0.24,-0.11 -0.45,-0.11 -0.2,0 -0.34,0.04 -0.44,0.11 -0.09,0.07 -0.14,0.19 -0.15,0.35 -0.01,0.19 -0.02,0.37 -0.02,0.55 0,0.18 0.01,0.36 0.02,0.55 0,0.21 0.04,0.36 0.09,0.46 0.06,0.1 0.17,0.17 0.31,0.21l0.48 0.1c0.4,0.09 0.68,0.24 0.83,0.46 0.16,0.21 0.25,0.52 0.26,0.92 0.01,0.15 0.01,0.31 0.01,0.48 0,0.16 -0.01,0.32 -0.01,0.47 -0.02,0.45 -0.13,0.76 -0.35,0.96 -0.21,0.19 -0.55,0.28 -1.02,0.28zm2.6 -0.06l0 -6.43 1.33 0c0.45,0 0.77,0.09 0.97,0.27 0.2,0.18 0.31,0.48 0.33,0.9 0.01,0.33 0.01,0.62 0.01,0.88 0,0.26 0,0.53 -0.01,0.81 -0.02,0.42 -0.13,0.72 -0.33,0.9 -0.2,0.18 -0.53,0.27 -0.98,0.27l-0.54 0 0 2.4 -0.78 0zm0.78 -3.1l0.54 0c0.19,0 0.32,-0.03 0.4,-0.1 0.08,-0.06 0.12,-0.18 0.13,-0.34 0.01,-0.28 0.02,-0.56 0.02,-0.84 0,-0.28 -0.01,-0.58 -0.02,-0.91 -0.01,-0.16 -0.05,-0.27 -0.13,-0.34 -0.08,-0.07 -0.21,-0.1 -0.39,-0.1l-0.55 0 0 2.63zm2.49 3.1l0.74 -6.43 1.49 0 0.75 6.43 -0.8 0 -0.16 -1.7 -1.07 0 -0.16 1.7 -0.79 0zm1.02 -2.4l0.93 0 -0.13 -1.37 -0.16 -1.96 -0.35 0 -0.16 1.96 -0.13 1.37zm2.98 2.4l0 -6.43 1.31 0c0.45,0 0.78,0.09 0.98,0.27 0.21,0.18 0.32,0.48 0.33,0.9 0.01,0.34 0.02,0.63 0.02,0.89 0,0.25 -0.01,0.52 -0.02,0.82 -0.02,0.53 -0.21,0.88 -0.57,1.03l0.69 2.52 -0.83 0 -0.6 -2.39 -0.53 0 0 2.39 -0.78 0zm0.78 -3.09l0.53 0c0.18,0 0.32,-0.03 0.4,-0.1 0.08,-0.07 0.12,-0.18 0.13,-0.33 0.01,-0.32 0.02,-0.62 0.02,-0.89 0,-0.26 -0.01,-0.56 -0.02,-0.88 -0.01,-0.16 -0.05,-0.27 -0.13,-0.34 -0.08,-0.07 -0.21,-0.1 -0.4,-0.1l-0.53 0 0 2.64zm3.01 3.09l0 -6.43 0.83 0 -0.01 1.43 -0.07 1.87 0.23 0 0.52 -1.88 0.48 -1.42 0.85 0 -0.99 2.82 1.07 3.61 -0.79 0 -0.79 -2.73 -0.53 1.28 0 1.45 -0.8 0z"/>
    <path class="fil1" d="M49 17.21l0 -6.43 1.32 0c0.47,0 0.81,0.09 1.02,0.28 0.21,0.18 0.32,0.49 0.32,0.91 0.01,0.22 0.01,0.41 0.01,0.57 0,0.16 0,0.32 -0.01,0.48 -0.01,0.25 -0.07,0.44 -0.16,0.58 -0.1,0.14 -0.25,0.24 -0.45,0.3l0 0.14c0.22,0.06 0.37,0.16 0.47,0.3 0.09,0.15 0.15,0.34 0.16,0.59 0.01,0.2 0.01,0.38 0.01,0.55 0,0.16 -0.01,0.34 -0.01,0.54 -0.02,0.42 -0.13,0.73 -0.34,0.91 -0.2,0.19 -0.54,0.28 -1,0.28l-1.34 0zm0.78 -3.59l0.59 0c0.18,0 0.31,-0.05 0.39,-0.15 0.08,-0.09 0.12,-0.25 0.12,-0.46 0.01,-0.2 0.01,-0.37 0.01,-0.54 0,-0.16 0,-0.34 -0.01,-0.53 0,-0.17 -0.04,-0.29 -0.13,-0.36 -0.08,-0.07 -0.23,-0.1 -0.43,-0.1l-0.54 0 0 2.14zm0 2.88l0.56 0c0.2,0 0.34,-0.04 0.43,-0.11 0.08,-0.08 0.12,-0.2 0.13,-0.38 0.01,-0.35 0.01,-0.7 0,-1.05 -0.01,-0.24 -0.05,-0.41 -0.13,-0.5 -0.08,-0.1 -0.22,-0.14 -0.42,-0.14l-0.57 0 0 2.18zm4.2 0.77c-0.48,0 -0.83,-0.1 -1.04,-0.29 -0.22,-0.2 -0.33,-0.52 -0.33,-0.98 -0.01,-0.5 -0.02,-0.96 -0.02,-1.39 -0.01,-0.42 -0.01,-0.84 0,-1.26 0,-0.42 0.01,-0.88 0.02,-1.37 0,-0.45 0.11,-0.77 0.33,-0.97 0.21,-0.2 0.56,-0.29 1.04,-0.29 0.48,0 0.82,0.09 1.04,0.29 0.21,0.2 0.32,0.52 0.33,0.97 0.02,0.5 0.02,0.95 0.03,1.37 0,0.42 0,0.84 0,1.26 -0.01,0.43 -0.01,0.89 -0.03,1.39 -0.01,0.46 -0.12,0.78 -0.33,0.98 -0.22,0.19 -0.56,0.29 -1.04,0.29zm0 -0.66c0.22,0 0.37,-0.04 0.46,-0.12 0.08,-0.08 0.13,-0.23 0.14,-0.45 0.01,-0.38 0.01,-0.74 0.02,-1.07 0,-0.34 0.01,-0.66 0.01,-0.98 0,-0.31 -0.01,-0.64 -0.01,-0.97 -0.01,-0.33 -0.01,-0.69 -0.02,-1.07 -0.01,-0.22 -0.06,-0.37 -0.14,-0.45 -0.09,-0.08 -0.24,-0.12 -0.46,-0.12 -0.21,0 -0.37,0.04 -0.45,0.12 -0.09,0.08 -0.14,0.23 -0.14,0.45 -0.01,0.38 -0.02,0.73 -0.03,1.06 0,0.33 -0.01,0.65 -0.01,0.97 0,0.31 0.01,0.64 0.01,0.97 0.01,0.34 0.02,0.7 0.03,1.09 0,0.22 0.05,0.37 0.14,0.45 0.09,0.08 0.24,0.12 0.45,0.12zm2.17 0.6l0.82 -3.3 -0.78 -3.13 0.76 0 0.35 1.56 0.18 1.26 0.27 0 0.18 -1.25 0.35 -1.57 0.76 0 -0.76 3.16 0.79 3.27 -0.75 0 -0.37 -1.58 -0.2 -1.34 -0.27 0 -0.19 1.34 -0.37 1.58 -0.77 0z"/>
    <path class="fil1" d="M60.3 10.55l0 -0.94 -0.18 0 0 -0.16 0.55 0 0 0.16 -0.19 0 0 0.94 -0.18 0zm0.44 0l0 -1.1 0.34 0 0.08 0.43 0.03 0.51 0.05 0 0.03 -0.51 0.08 -0.43 0.34 0 0 1.1 -0.19 0 0 -0.33 0.03 -0.61 -0.06 0 -0.06 0.62 -0.08 0.32 -0.24 0 -0.07 -0.32 -0.07 -0.62 -0.06 0 0.03 0.61 0 0.33 -0.18 0z"/>
   </g>
   <polygon class="fil3" points="15.52,2.79 19.79,5.25 24.06,7.71 24.06,12.64 24.06,17.57 19.79,20.04 15.52,22.5 11.25,20.04 6.98,17.57 6.98,12.64 6.98,7.71 11.25,5.25 "/>
   <path class="fil4" d="M15.74 2.91l4.05 2.34 4.05 2.34 -7.53 3.69 -0.57 -8.37zm8.32 5.06l0 4.67 0 4.68 -6.97 -4.68 6.97 -4.67zm-0.22 9.73l-4.05 2.34 -4.05 2.34 0.57 -8.38 7.53 3.7zm-8.54 4.68l-4.05 -2.34 -4.05 -2.34 7.54 -3.7 0.56 8.38zm-8.32 -5.06l0 -4.68 0 -4.67 6.97 4.67 -6.97 4.68zm0.22 -9.73l4.05 -2.34 4.05 -2.34 -0.56 8.37 -7.54 -3.69z"/>
  </g>
 </g>
</svg>
