<?xml version="1.0" encoding="UTF-8" standalone="no"?>
<svg
   xmlns:dc="http://purl.org/dc/elements/1.1/"
   xmlns:cc="http://creativecommons.org/ns#"
   xmlns:rdf="http://www.w3.org/1999/02/22-rdf-syntax-ns#"
   xmlns:svg="http://www.w3.org/2000/svg"
   xmlns="http://www.w3.org/2000/svg"
   xmlns:sodipodi="http://sodipodi.sourceforge.net/DTD/sodipodi-0.dtd"
   xmlns:inkscape="http://www.inkscape.org/namespaces/inkscape"
   xml:space="preserve"
   width="77.506752mm"
   height="11.992087mm"
   version="1.1"
   style="clip-rule:evenodd;fill-rule:evenodd;image-rendering:optimizeQuality;shape-rendering:geometricPrecision;text-rendering:geometricPrecision"
   viewBox="0 0 30.699998 4.7489925"
   id="svg17"
   sodipodi:docname="logo.svg"
   inkscape:version="1.0.2 (e86c870879, 2021-01-15)"><metadata
   id="metadata21"><rdf:RDF><cc:Work
       rdf:about=""><dc:format>image/svg+xml</dc:format><dc:type
         rdf:resource="http://purl.org/dc/dcmitype/StillImage" /><dc:title></dc:title></cc:Work></rdf:RDF></metadata><sodipodi:namedview
   pagecolor="#ffffff"
   bordercolor="#666666"
   borderopacity="1"
   objecttolerance="10"
   gridtolerance="10"
   guidetolerance="10"
   inkscape:pageopacity="0"
   inkscape:pageshadow="2"
   inkscape:window-width="1920"
   inkscape:window-height="1044"
   id="namedview19"
   showgrid="false"
   inkscape:document-units="mm"
   units="mm"
   fit-margin-top="0"
   fit-margin-left="0"
   fit-margin-right="0"
   fit-margin-bottom="0"
   inkscape:zoom="2.8955556"
   inkscape:cx="209.41497"
   inkscape:cy="58.81901"
   inkscape:window-x="0"
   inkscape:window-y="0"
   inkscape:window-maximized="1"
   inkscape:current-layer="svg17" />
 <defs
   id="defs4">
  <style
   type="text/css"
   id="style2">
   <![CDATA[
    .fil0 {fill:black}
    .fil3 {fill:gray;fill-rule:nonzero}
    .fil2 {fill:#FFCC00;fill-rule:nonzero}
    .fil1 {fill:white;fill-rule:nonzero}
   ]]>
  </style>
 
  
  
  
 </defs>
 <g
   id="g855"
   transform="translate(-2.13,-2.3405037)"><g
     id="_1831428940656">
   <path
   class="fil1"
   d="M 21.56,5.02 21.12,3.95 20.69,5.02 Z M 26.93,2.34 V 7.07 L 25.2,4.64 26.37,3.02 H 25.34 L 24.68,3.99 24.01,3.02 H 22.94 L 24.11,4.68 23.01,6.2 21.6,3.02 H 20.66 L 19.35,6 19.34,3.02 H 18.56 L 17.41,4.96 16.23,3.02 h -0.78 v 3.36 h 0.87 V 4.64 l 0.86,1.4 h 0.42 l 0.87,-1.44 0.01,1.78 h 0.7 0.17 0.8 l 0.26,-0.66 h 1.42 l 0.27,0.66 h 0.79 0.2 0.88 l 0.69,-1.05 1.19,1.76 H 15.06 14.88 2.35 2.13 V 6.86 2.57 2.34 H 2.35 5.03 L 4.94,2.57 H 2.35 V 6.86 H 14.88 V 2.34 Z"
   id="path9" />
   <path
   class="fil2"
   d="m 13.13,4.37 h 1.4 v 0.7 h -1.4 z M 6.82,2.34 h 7.49 V 2.57 H 6.72 L 5.09,6.39 H 4.16 L 2.72,3.03 H 3.75 L 4.66,5.22 5.88,2.34 H 6.35 Z M 6.73,3.03 H 7.68 V 6.39 H 6.73 Z M 9.41,5.17 9.05,5.55 V 6.39 H 8.11 V 3.03 h 0.94 v 1.4 l 1.3,-1.4 h 1.05 l -1.37,1.49 1.44,1.87 h -1.1 z m 2.26,-2.14 h 0.95 v 3.36 h -0.95 z"
   id="path11" />
   <path
   class="fil3"
   d="M 27.45,7.05 C 27.41,7.05 27.37,7.03 27.34,7 27.31,6.98 27.3,6.94 27.3,6.9 c 0,-0.04 0.01,-0.08 0.04,-0.11 0.03,-0.03 0.07,-0.04 0.11,-0.04 0.04,0 0.07,0.01 0.1,0.04 0.02,0.03 0.04,0.06 0.04,0.11 0,0.04 -0.02,0.08 -0.04,0.1 -0.03,0.03 -0.07,0.05 -0.1,0.05 z m 1.1,0 C 28.4,7.05 28.26,7.02 28.14,6.95 28.02,6.88 27.92,6.79 27.85,6.67 27.79,6.56 27.75,6.42 27.75,6.28 c 0,-0.15 0.04,-0.28 0.1,-0.4 0.07,-0.12 0.17,-0.21 0.29,-0.28 0.12,-0.06 0.26,-0.1 0.41,-0.1 0.12,0 0.23,0.02 0.33,0.06 0.1,0.04 0.18,0.1 0.25,0.18 L 28.99,5.87 C 28.87,5.75 28.73,5.69 28.56,5.69 c -0.11,0 -0.21,0.03 -0.3,0.08 -0.09,0.05 -0.17,0.12 -0.22,0.21 -0.05,0.09 -0.07,0.19 -0.07,0.3 0,0.11 0.02,0.21 0.07,0.29 0.05,0.09 0.13,0.16 0.22,0.21 0.09,0.05 0.19,0.08 0.3,0.08 0.17,0 0.31,-0.06 0.43,-0.18 l 0.14,0.13 c -0.07,0.08 -0.15,0.14 -0.25,0.18 -0.1,0.04 -0.21,0.06 -0.33,0.06 z m 1.54,0 C 29.94,7.05 29.8,7.02 29.68,6.95 29.55,6.88 29.46,6.79 29.39,6.67 29.32,6.55 29.28,6.42 29.28,6.28 29.28,6.13 29.32,6 29.39,5.88 29.46,5.76 29.55,5.67 29.68,5.6 29.8,5.54 29.94,5.5 30.09,5.5 c 0.15,0 0.29,0.04 0.41,0.1 0.12,0.07 0.22,0.16 0.29,0.28 0.07,0.12 0.1,0.25 0.1,0.4 0,0.14 -0.03,0.28 -0.1,0.39 -0.07,0.12 -0.17,0.21 -0.29,0.28 -0.12,0.07 -0.26,0.1 -0.41,0.1 z m 0,-0.19 c 0.11,0 0.21,-0.03 0.3,-0.08 C 30.48,6.73 30.55,6.66 30.6,6.57 30.65,6.49 30.68,6.39 30.68,6.28 30.68,6.17 30.65,6.07 30.6,5.98 30.55,5.89 30.48,5.82 30.39,5.77 30.3,5.72 30.2,5.69 30.09,5.69 c -0.11,0 -0.21,0.03 -0.3,0.08 -0.09,0.05 -0.16,0.12 -0.21,0.21 -0.06,0.09 -0.08,0.19 -0.08,0.3 0,0.11 0.02,0.21 0.08,0.29 0.05,0.09 0.12,0.16 0.21,0.21 0.09,0.05 0.19,0.08 0.3,0.08 z m 2.54,0.17 -0.01,-1.1 -0.54,0.92 h -0.1 L 31.43,5.94 V 7.03 H 31.22 V 5.52 h 0.18 l 0.63,1.06 0.62,-1.06 h 0.18 v 1.51 z"
   id="path13" />
  </g></g>
</svg>
