<?xml version="1.0" encoding="UTF-8"?>
<!DOCTYPE svg PUBLIC "-//W3C//DTD SVG 1.1//EN" "http://www.w3.org/Graphics/SVG/1.1/DTD/svg11.dtd">
<!-- Creator: CorelDRAW 2019 (64-Bit) -->
<svg xmlns="http://www.w3.org/2000/svg" xml:space="preserve" width="50px" height="50px" version="1.1" style="shape-rendering:geometricPrecision; text-rendering:geometricPrecision; image-rendering:optimizeQuality; fill-rule:evenodd; clip-rule:evenodd"
viewBox="0 0 3.92 3.92"
 xmlns:xlink="http://www.w3.org/1999/xlink">
 <defs>
  <style type="text/css">
   <![CDATA[
    .fil0 {fill:white;fill-rule:nonzero}
   ]]>
  </style>
 </defs>
 <g id="Layer_x0020_1">
  <metadata id="CorelCorpID_0Corel-Layer"/>
  <path class="fil0" d="M1.96 0c1.08,0 1.96,0.88 1.96,1.96 0,1.08 -0.88,1.96 -1.96,1.96 -1.08,0 -1.96,-0.88 -1.96,-1.96 0,-1.08 0.88,-1.96 1.96,-1.96zm-1.12 1.09c-0.03,0.01 -0.06,0.03 -0.07,0.06 -0.01,0.03 -0.01,0.09 -0.01,0.12l0 1.42c0,0.05 0,0.07 0.03,0.1 0.02,0.03 0.05,0.03 0.1,0.03l2.06 0c0.08,0 0.16,0.02 0.2,-0.05 0.01,-0.03 0,-0.09 0,-0.13l0 -1.41c0,-0.05 0.01,-0.08 -0.02,-0.11 -0.03,-0.02 -0.05,-0.03 -0.1,-0.03l-2.06 0c-0.03,0 -0.1,0 -0.13,0zm1.51 0.89c0.01,0.01 0.54,0.49 0.59,0.53 0.01,0 0.01,0.01 0.02,0.01l0 -1.08 -0.31 0.27c-0.02,0.02 -0.05,0.04 -0.07,0.07l-0.08 0.06c-0.03,0.03 -0.05,0.05 -0.08,0.07l-0.07 0.07zm-0.39 0.08l0.1 -0.09c0.03,-0.03 0.07,-0.07 0.11,-0.1l0.23 -0.2c0.01,-0.01 0.02,-0.02 0.03,-0.02 0.03,-0.03 0.09,-0.09 0.13,-0.12 0.01,-0.01 0.02,-0.01 0.03,-0.02l0.1 -0.09c0.02,-0.02 0.03,-0.03 0.05,-0.05 0.01,0 0.05,-0.04 0.05,-0.04l-1.67 -0.01c0,0.01 0.35,0.31 0.39,0.35 0.04,0.03 0.1,0.08 0.13,0.11 0.04,0.03 0.07,0.06 0.11,0.09 0.04,0.04 0.09,0.08 0.13,0.12l0.05 0.04c0.01,0.01 0.02,0.02 0.03,0.03zm-0.24 0.05c0,0 -0.06,0.05 -0.07,0.06l-0.38 0.34c-0.03,0.03 -0.1,0.09 -0.13,0.12 0.38,0.04 1.22,0.01 1.64,0l-0.05 -0.05c-0.05,-0.05 -0.1,-0.09 -0.15,-0.13l-0.2 -0.18c-0.02,-0.02 -0.1,-0.09 -0.13,-0.11 -0.01,-0.01 -0.04,-0.05 -0.05,-0.05l-0.17 0.14c-0.01,0.02 -0.04,0.03 -0.07,0.03 -0.03,0.01 -0.06,-0.01 -0.07,-0.02 -0.02,-0.02 -0.04,-0.04 -0.06,-0.05 -0.03,-0.03 -0.08,-0.08 -0.11,-0.1zm-0.76 0.42c0.01,-0.01 0.08,-0.07 0.09,-0.09 0.05,-0.03 0.09,-0.08 0.14,-0.12 0,0 0.01,-0.01 0.02,-0.01l0.02 -0.02c0.03,-0.03 0.08,-0.07 0.11,-0.1l0.23 -0.21 -0.04 -0.03c0,-0.01 -0.01,-0.01 -0.01,-0.02 -0.03,-0.02 -0.07,-0.06 -0.1,-0.08 -0.01,-0.02 -0.03,-0.03 -0.04,-0.04 -0.03,-0.03 -0.08,-0.07 -0.11,-0.1 -0.04,-0.03 -0.1,-0.08 -0.14,-0.12 -0.02,-0.02 -0.07,-0.06 -0.1,-0.08l-0.07 -0.07 0 1.09z"/>
 </g>
</svg>
