<?xml version="1.0" encoding="UTF-8"?>
<!DOCTYPE svg PUBLIC "-//W3C//DTD SVG 1.1//EN" "http://www.w3.org/Graphics/SVG/1.1/DTD/svg11.dtd">
<!-- Creator: CorelDRAW 2019 (64-Bit) -->
<svg xmlns="http://www.w3.org/2000/svg" xml:space="preserve" width="50px" height="50px" version="1.1" style="shape-rendering:geometricPrecision; text-rendering:geometricPrecision; image-rendering:optimizeQuality; fill-rule:evenodd; clip-rule:evenodd"
viewBox="0 0 3.92 3.92"
 xmlns:xlink="http://www.w3.org/1999/xlink">
 <defs>
  <style type="text/css">
   <![CDATA[
    .fil0 {fill:white;fill-rule:nonzero}
   ]]>
  </style>
 </defs>
 <g id="Layer_x0020_1">
  <metadata id="CorelCorpID_0Corel-Layer"/>
  <path class="fil0" d="M1.96 0c1.08,0 1.96,0.88 1.96,1.96 0,1.08 -0.88,1.96 -1.96,1.96 -1.08,0 -1.96,-0.88 -1.96,-1.96 0,-1.08 0.88,-1.96 1.96,-1.96zm-0.64 0.91c-0.04,0.01 -0.06,0.04 -0.08,0.06 -0.03,0.03 -0.05,0.05 -0.07,0.07 -0.05,0.05 -0.1,0.1 -0.15,0.14 -0.03,0.04 -0.1,0.09 -0.11,0.17 -0.01,0.09 0.01,0.18 0.03,0.26 0.04,0.14 0.1,0.27 0.18,0.39 0.05,0.09 0.11,0.16 0.17,0.24 0.07,0.08 0.24,0.26 0.32,0.32 0.01,0.01 0.02,0.03 0.03,0.04 0.12,0.1 0.19,0.15 0.34,0.23 0.11,0.06 0.25,0.14 0.4,0.16 0.08,0.01 0.18,0.03 0.25,-0.01 0.04,-0.02 0.1,-0.09 0.14,-0.13 0.04,-0.03 0.2,-0.19 0.22,-0.21 0.02,-0.03 0.02,-0.08 0,-0.11 -0.02,-0.03 -0.05,-0.04 -0.08,-0.06l-0.27 -0.16c-0.03,-0.02 -0.06,-0.03 -0.08,-0.05 -0.04,-0.02 -0.06,-0.04 -0.11,-0.04 -0.05,0.01 -0.07,0.03 -0.1,0.05l-0.1 0.11c-0.01,0.01 -0.02,0.02 -0.05,0.02 -0.09,-0.02 -0.21,-0.1 -0.27,-0.16 -0.09,-0.07 -0.21,-0.19 -0.28,-0.28 -0.03,-0.04 -0.17,-0.23 -0.12,-0.28 0.02,-0.03 0.05,-0.05 0.07,-0.07 0.02,-0.03 0.05,-0.05 0.06,-0.08 0.02,-0.04 0.02,-0.08 0,-0.11 -0.06,-0.12 -0.13,-0.25 -0.19,-0.37 -0.03,-0.06 -0.07,-0.15 -0.15,-0.14z"/>
 </g>
</svg>
