<?xml version="1.0" encoding="UTF-8"?>
<!DOCTYPE svg PUBLIC "-//W3C//DTD SVG 1.1//EN" "http://www.w3.org/Graphics/SVG/1.1/DTD/svg11.dtd">
<!-- Creator: CorelDRAW 2019 (64-Bit) -->
<svg xmlns="http://www.w3.org/2000/svg" xml:space="preserve" width="2.2491mm" height="2.249mm" version="1.1" shape-rendering="geometricPrecision" text-rendering="geometricPrecision" image-rendering="optimizeQuality" fill-rule="evenodd" clip-rule="evenodd"
viewBox="0 0 7.04 7.04"
 xmlns:xlink="http://www.w3.org/1999/xlink">
 <g id="Layer_x0020_1">
  <metadata id="CorelCorpID_0Corel-Layer"/>
  <path fill="#919191" d="M0.66 2.79c0,-0.29 0.1,-0.67 0.19,-0.88 0.78,-1.67 3.1,-1.67 3.89,0 0.2,0.42 0.23,0.88 0.13,1.35 -0.16,0.77 -0.83,1.44 -1.6,1.6 -1.04,0.21 -1.99,-0.28 -2.42,-1.2 -0.1,-0.2 -0.19,-0.59 -0.19,-0.88zm-0.66 -0.14c0,0.6 0.03,0.79 0.26,1.34 0.37,0.86 1.42,1.59 2.39,1.59 0.74,0 1.15,-0.1 1.76,-0.51 0.07,0.1 1.33,1.35 1.53,1.54 0.19,0.19 0.34,0.43 0.64,0.43 0.23,0 0.45,-0.21 0.45,-0.49 0,-0.25 -0.29,-0.46 -0.43,-0.6 -0.2,-0.2 -1.44,-1.47 -1.54,-1.53 0.68,-1.01 0.7,-2.22 0.01,-3.23 -0.46,-0.66 -1.32,-1.18 -2.14,-1.18 -0.6,0 -0.79,0.03 -1.34,0.26 -0.86,0.37 -1.59,1.42 -1.59,2.39z"/>
 </g>
</svg>
