<?xml version="1.0" encoding="UTF-8"?>
<!DOCTYPE svg PUBLIC "-//W3C//DTD SVG 1.1//EN" "http://www.w3.org/Graphics/SVG/1.1/DTD/svg11.dtd">
<!-- Creator: CorelDRAW 2019 (64-Bit) -->
<svg xmlns="http://www.w3.org/2000/svg" xml:space="preserve" width="50px" height="50px" version="1.1" style="shape-rendering:geometricPrecision; text-rendering:geometricPrecision; image-rendering:optimizeQuality; fill-rule:evenodd; clip-rule:evenodd"
viewBox="0 0 3.92 3.92"
 xmlns:xlink="http://www.w3.org/1999/xlink">
 <defs>
  <style type="text/css">
   <![CDATA[
    .fil0 {fill:white;fill-rule:nonzero}
   ]]>
  </style>
 </defs>
 <g id="Layer_x0020_1">
  <metadata id="CorelCorpID_0Corel-Layer"/>
  <path class="fil0" d="M3.05 1.17c0.1,0 0.27,-0.08 0.31,-0.08 -0.01,0.05 -0.15,0.19 -0.2,0.23 -0.02,0.02 -0.05,0.04 -0.07,0.06 -0.02,0.03 0.07,0.93 -0.78,1.49 -0.5,0.33 -1.26,0.31 -1.76,-0.02 0.09,-0.02 0.25,0.07 0.68,-0.13 0.04,-0.02 0.14,-0.09 0.17,-0.11 -0.07,-0.01 -0.13,-0.02 -0.2,-0.04 -0.1,-0.05 -0.2,-0.12 -0.26,-0.21 -0.02,-0.03 -0.07,-0.11 -0.08,-0.16 0.1,0.01 0.15,0.02 0.25,-0.01 -0.12,-0.04 -0.21,-0.06 -0.31,-0.19 -0.08,-0.1 -0.14,-0.21 -0.14,-0.38l0.11 0.04c0.04,0.02 0.1,0.03 0.15,0.03 -0.03,-0.01 -0.12,-0.11 -0.14,-0.13 -0.14,-0.18 -0.16,-0.49 -0.04,-0.64 0.02,0.01 0.09,0.1 0.1,0.11 0.29,0.29 0.67,0.47 1.09,0.49 -0.01,-0.17 -0.03,-0.3 0.1,-0.47 0.08,-0.11 0.2,-0.2 0.37,-0.23 0.2,-0.04 0.39,0.04 0.5,0.15 0.02,0.02 0.02,0.02 0.05,0.01 0.08,-0.01 0.21,-0.06 0.28,-0.1 0.03,-0.01 0.03,-0.01 0.06,-0.02 -0.02,0.11 -0.14,0.24 -0.24,0.31zm-3.05 0.68l0 0.23c0.01,0.02 0.02,0.16 0.03,0.2 0.01,0.07 0.02,0.13 0.04,0.19 0.17,0.65 0.71,1.2 1.36,1.37 0.07,0.02 0.13,0.04 0.2,0.05 0.03,0 0.17,0.01 0.2,0.03l0.22 0c0.02,-0.01 0.17,-0.02 0.21,-0.03 0.64,-0.09 1.18,-0.5 1.46,-1.09 0.19,-0.37 0.18,-0.7 0.2,-0.73l0 -0.24c-0.03,-0.05 -0.01,-0.33 -0.2,-0.73 -0.11,-0.21 -0.22,-0.37 -0.38,-0.53 -0.09,-0.09 -0.15,-0.14 -0.26,-0.21 -0.23,-0.18 -0.52,-0.28 -0.81,-0.34 -0.04,0 -0.18,-0.01 -0.2,-0.02l-0.22 0c-0.01,0.01 -0.17,0.02 -0.21,0.03 -0.06,0.01 -0.12,0.02 -0.19,0.04 -0.11,0.02 -0.23,0.07 -0.33,0.12 -0.6,0.29 -0.98,0.8 -1.09,1.46 -0.01,0.03 -0.02,0.18 -0.03,0.2z"/>
 </g>
</svg>
