<?xml version="1.0" encoding="UTF-8"?>
<!DOCTYPE svg PUBLIC "-//W3C//DTD SVG 1.1//EN" "http://www.w3.org/Graphics/SVG/1.1/DTD/svg11.dtd">
<!-- Creator: CorelDRAW 2019 (64-Bit) -->
<svg xmlns="http://www.w3.org/2000/svg" xml:space="preserve" width="50px" height="50px" version="1.1" style="shape-rendering:geometricPrecision; text-rendering:geometricPrecision; image-rendering:optimizeQuality; fill-rule:evenodd; clip-rule:evenodd"
viewBox="0 0 3.94 3.94"
 xmlns:xlink="http://www.w3.org/1999/xlink">
 <defs>
  <style type="text/css">
   <![CDATA[
    .fil0 {fill:white;fill-rule:nonzero}
   ]]>
  </style>
 </defs>
 <g id="Layer_x0020_1">
  <metadata id="CorelCorpID_0Corel-Layer"/>
  <path class="fil0" d="M0 1.86l0 0.23c0.01,0.02 0.02,0.16 0.03,0.2 0.01,0.07 0.02,0.13 0.04,0.19 0.17,0.66 0.71,1.2 1.37,1.38 0.07,0.02 0.13,0.03 0.19,0.05 0.04,0 0.18,0.01 0.21,0.03l0.22 0c0.02,-0.01 0.17,-0.02 0.21,-0.03 0.65,-0.1 1.18,-0.51 1.47,-1.09 0.19,-0.38 0.18,-0.71 0.2,-0.74l0 -0.24c-0.03,-0.05 -0.01,-0.34 -0.2,-0.73 -0.11,-0.22 -0.23,-0.37 -0.39,-0.54 -0.08,-0.09 -0.15,-0.14 -0.25,-0.21 -0.24,-0.18 -0.53,-0.28 -0.82,-0.34 -0.04,0 -0.18,-0.01 -0.2,-0.02l-0.22 0c-0.01,0.01 -0.17,0.02 -0.21,0.03 -0.06,0.01 -0.12,0.02 -0.19,0.04 -0.11,0.03 -0.24,0.07 -0.34,0.12 -0.6,0.3 -0.98,0.8 -1.09,1.46 -0.01,0.04 -0.02,0.19 -0.03,0.21zm0.58 1.17c0,-0.1 0.02,-0.21 0.05,-0.3 0.01,-0.05 0.02,-0.08 0.04,-0.12 0.02,-0.04 0.03,-0.09 0.05,-0.12 0.02,-0.02 0.02,-0.04 0.03,-0.05 0.08,-0.13 0.13,-0.19 0.23,-0.3 0.11,-0.1 0.24,-0.17 0.37,-0.23 0.06,-0.04 0.05,-0.02 0.1,0.01 0.18,0.14 0.44,0.2 0.68,0.16 0.04,-0.01 0.09,-0.02 0.13,-0.04 0.29,-0.1 0.22,-0.19 0.33,-0.13l0.12 0.06c0.05,0.02 0.16,0.1 0.2,0.14 0.08,0.08 0.14,0.12 0.2,0.22 0.02,0.02 0.03,0.04 0.04,0.05l0.09 0.17c0.08,0.18 0.12,0.34 0.12,0.55 0,0.04 -0.05,0.08 -0.09,0.08 -0.87,0.3 -1.74,0.33 -2.6,0 -0.04,0 -0.09,-0.04 -0.09,-0.08l0 -0.07zm0.63 -1.86c0,-0.11 0.04,-0.22 0.07,-0.29 0.06,-0.12 0.15,-0.22 0.25,-0.3 0.03,-0.02 0.08,-0.05 0.11,-0.06 0.22,-0.1 0.43,-0.1 0.65,0 0.15,0.07 0.29,0.21 0.36,0.36 0.06,0.12 0.07,0.22 0.07,0.36 0,0.18 -0.1,0.37 -0.22,0.5 -0.22,0.22 -0.58,0.28 -0.86,0.14 -0.07,-0.03 -0.15,-0.09 -0.21,-0.14 -0.03,-0.04 -0.05,-0.07 -0.08,-0.1 -0.02,-0.03 -0.05,-0.08 -0.07,-0.12 -0.06,-0.13 -0.07,-0.2 -0.07,-0.35z"/>
 </g>
</svg>
