<?xml version="1.0" encoding="UTF-8"?>
<!DOCTYPE svg PUBLIC "-//W3C//DTD SVG 1.1//EN" "http://www.w3.org/Graphics/SVG/1.1/DTD/svg11.dtd">
<!-- Creator: CorelDRAW 2019 (64-Bit) -->
<svg xmlns="http://www.w3.org/2000/svg" xml:space="preserve" width="50px" height="50px" version="1.1" style="shape-rendering:geometricPrecision; text-rendering:geometricPrecision; image-rendering:optimizeQuality; fill-rule:evenodd; clip-rule:evenodd"
viewBox="0 0 3.92 3.92"
 xmlns:xlink="http://www.w3.org/1999/xlink">
 <defs>
  <style type="text/css">
   <![CDATA[
    .fil0 {fill:white;fill-rule:nonzero}
   ]]>
  </style>
 </defs>
 <g id="Layer_x0020_1">
  <metadata id="CorelCorpID_0Corel-Layer"/>
  <path class="fil0" d="M1.93 0.31c-0.17,0 -0.31,0.11 -0.42,0.22 -0.03,0.03 -0.04,0.04 -0.06,0.07l-0.11 0.15 1.22 0c-0.02,-0.03 -0.03,-0.05 -0.05,-0.08 -0.07,-0.1 -0.16,-0.2 -0.26,-0.26 -0.03,-0.03 -0.04,-0.04 -0.08,-0.05 -0.09,-0.04 -0.12,-0.05 -0.24,-0.05zm-1.93 1.36c0,0.05 0.1,0.26 0.13,0.33l0.09 0.23c0.03,0.07 0.05,0.06 0.18,0.06 0.05,0 0.08,-0.08 0.11,-0.17 0.03,-0.06 0.07,-0.13 0.09,-0.19 0.02,0.02 0.03,0.06 0.05,0.09l0.08 0.2c0.04,0.08 0.04,0.07 0.18,0.07 0.06,0 0.11,-0.13 0.14,-0.21 0.02,-0.06 0.17,-0.38 0.17,-0.4 0,-0.06 -0.1,-0.04 -0.18,-0.04 -0.06,0 -0.07,0.08 -0.1,0.17 -0.02,0.03 -0.06,0.18 -0.09,0.19 0,-0.03 -0.1,-0.24 -0.12,-0.29 -0.03,-0.09 -0.03,-0.07 -0.18,-0.07 -0.04,0 -0.13,0.21 -0.15,0.27 -0.01,0.03 -0.03,0.06 -0.04,0.09 -0.03,-0.02 -0.1,-0.25 -0.11,-0.3 -0.03,-0.08 -0.04,-0.06 -0.2,-0.06 -0.03,0 -0.05,0 -0.05,0.03zm2.7 0.01c0,0.02 0.05,0.13 0.06,0.16l0.16 0.4c0.03,0.06 0.06,0.05 0.17,0.05 0.07,0 0.08,-0.09 0.12,-0.17 0.02,-0.04 0.08,-0.17 0.1,-0.19 0,0.03 0.06,0.15 0.08,0.19 0.01,0.04 0.03,0.07 0.04,0.1 0.04,0.08 0.02,0.07 0.19,0.07 0.05,0 0.06,-0.06 0.09,-0.13 0.03,-0.08 0.21,-0.44 0.21,-0.49 0,-0.05 -0.11,-0.03 -0.18,-0.03 -0.06,0 -0.07,0.08 -0.1,0.16 -0.02,0.04 -0.03,0.06 -0.04,0.1 -0.01,0.03 -0.03,0.07 -0.04,0.1 -0.01,-0.01 -0.01,-0.02 -0.02,-0.04l-0.11 -0.25c-0.03,-0.09 -0.02,-0.07 -0.17,-0.07 -0.06,0 -0.08,0.08 -0.12,0.17 -0.02,0.05 -0.07,0.15 -0.08,0.2l-0.02 -0.05c-0.01,-0.02 -0.02,-0.03 -0.02,-0.05 -0.02,-0.03 -0.02,-0.06 -0.04,-0.1 -0.08,-0.2 -0.01,-0.17 -0.25,-0.17 -0.01,0 -0.03,0.02 -0.03,0.04zm-1.06 0.61c0.2,0 0.12,0.03 0.27,-0.27 0.02,-0.03 0.03,-0.07 0.04,-0.1l0.13 0.29c0.04,0.09 0.03,0.08 0.19,0.08 0.05,0 0.06,-0.06 0.1,-0.15l0.16 -0.35c0.06,-0.16 0.08,-0.15 -0.14,-0.15 -0.06,0 -0.07,0.07 -0.11,0.17 -0.01,0.04 -0.02,0.06 -0.03,0.1 -0.02,0.03 -0.04,0.07 -0.04,0.1l-0.13 -0.3c-0.03,-0.09 -0.02,-0.07 -0.18,-0.07 -0.05,0 -0.07,0.08 -0.11,0.16 -0.01,0.04 -0.08,0.18 -0.08,0.2l-0.08 -0.2c-0.07,-0.18 -0.01,-0.16 -0.23,-0.16 -0.1,0 -0.03,0.11 -0.01,0.15 0.02,0.06 0.04,0.11 0.07,0.17 0.02,0.06 0.05,0.12 0.07,0.18 0.03,0.07 0.04,0.15 0.11,0.15zm1.16 1.08c0.01,-0.03 0.1,-0.16 0.11,-0.2l0.16 0c-0.04,0.05 -0.21,0.16 -0.27,0.2zm-1.46 -0.2l1.22 0 -0.11 0.15c-0.06,0.08 -0.18,0.2 -0.28,0.24 -0.17,0.06 -0.26,0.07 -0.43,0l-0.09 -0.05c-0.03,-0.02 -0.04,-0.03 -0.07,-0.06 -0.05,-0.03 -0.15,-0.15 -0.19,-0.2 -0.01,-0.03 -0.03,-0.06 -0.05,-0.08zm-0.51 0l0.16 0 0.11 0.2c-0.02,-0.01 -0.05,-0.03 -0.07,-0.04l-0.14 -0.1c-0.02,-0.03 -0.04,-0.04 -0.06,-0.06zm1.02 0.75l0.02 0c0.32,0 0.51,-0.02 0.82,-0.14 0.27,-0.11 0.5,-0.28 0.7,-0.48 0.07,-0.07 0.2,-0.25 0.25,-0.33l0.18 -0.42 -0.33 0c-0.01,0.07 -0.07,0.18 -0.11,0.24 -0.01,0.03 -0.03,0.05 -0.04,0.07l-0.31 0c0.02,-0.07 0.07,-0.24 0.07,-0.31l-0.31 0c-0.03,0.12 -0.07,0.23 -0.09,0.31l-1.5 0c-0.02,-0.08 -0.06,-0.19 -0.09,-0.31l-0.31 0c0,0.09 0.06,0.27 0.07,0.31l-0.31 0c-0.04,-0.08 -0.13,-0.22 -0.15,-0.31l-0.33 0c0,0.03 0.01,0.05 0.02,0.07l0.06 0.15c0.03,0.09 0.15,0.29 0.21,0.36 0.02,0.02 0.03,0.04 0.05,0.06l0.09 0.1c0.06,0.08 0.11,0.1 0.15,0.15 0.11,0.11 0.38,0.27 0.54,0.33 0.19,0.07 0.45,0.15 0.65,0.15zm0.05 -3.92l0.16 0c0.1,0 0.21,0.02 0.33,0.05 0.62,0.14 1.15,0.59 1.38,1.17 0.02,0.04 0.04,0.1 0.05,0.14l-0.33 0c-0.02,-0.1 -0.1,-0.22 -0.15,-0.3l-0.31 0c0.02,0.07 0.07,0.23 0.07,0.3l-0.31 0c-0.02,-0.05 -0.03,-0.1 -0.04,-0.16 -0.01,-0.04 -0.04,-0.1 -0.05,-0.14l-1.5 0c-0.02,0.08 -0.06,0.19 -0.09,0.3l-0.31 0c0,-0.08 0.06,-0.26 0.07,-0.3l-0.31 0c-0.03,0.05 -0.06,0.09 -0.08,0.14l-0.07 0.16 -0.33 0c0,-0.03 0.01,-0.05 0.02,-0.07 0.01,-0.03 0.02,-0.05 0.03,-0.08 0.07,-0.17 0.17,-0.34 0.29,-0.49 0.05,-0.06 0.14,-0.15 0.19,-0.2 0.02,-0.02 0.03,-0.03 0.06,-0.05 0.21,-0.21 0.69,-0.43 1,-0.45 0.09,-0.01 0.16,-0.02 0.23,-0.02zm0.9 0.54c0.03,0.06 0.1,0.18 0.11,0.21l0.16 0c-0.02,-0.03 -0.03,-0.04 -0.06,-0.06 -0.07,-0.06 -0.13,-0.1 -0.21,-0.15zm-1.81 0.21l0.11 -0.21c-0.03,0.02 -0.05,0.03 -0.08,0.05 -0.02,0.02 -0.04,0.03 -0.06,0.05 -0.03,0.02 -0.11,0.09 -0.13,0.11l0.16 0z"/>
 </g>
</svg>
