<?xml version="1.0" encoding="UTF-8"?>
<!DOCTYPE svg PUBLIC "-//W3C//DTD SVG 1.1//EN" "http://www.w3.org/Graphics/SVG/1.1/DTD/svg11.dtd">
<!-- Creator: CorelDRAW 2019 (64-Bit) -->
<svg xmlns="http://www.w3.org/2000/svg" xml:space="preserve" width="50px" height="50px" version="1.1" style="shape-rendering:geometricPrecision; text-rendering:geometricPrecision; image-rendering:optimizeQuality; fill-rule:evenodd; clip-rule:evenodd"
viewBox="0 0 3.92 3.92"
 xmlns:xlink="http://www.w3.org/1999/xlink">
 <defs>
  <style type="text/css">
   <![CDATA[
    .fil0 {fill:white}
   ]]>
  </style>
 </defs>
 <g id="Layer_x0020_1">
  <metadata id="CorelCorpID_0Corel-Layer"/>
  <path class="fil0" d="M1.96 0c1.08,0 1.96,0.88 1.96,1.96 0,1.08 -0.88,1.96 -1.96,1.96 -1.08,0 -1.96,-0.88 -1.96,-1.96 0,-1.08 0.88,-1.96 1.96,-1.96zm0.05 2.84l-0.52 -0.01c-0.17,0 -0.34,0 -0.5,-0.03 -0.26,-0.05 -0.27,-0.31 -0.29,-0.52 -0.03,-0.3 -0.02,-0.6 0.03,-0.9 0.03,-0.16 0.14,-0.26 0.3,-0.27 0.57,-0.04 1.14,-0.04 1.7,-0.02 0.06,0 0.12,0.01 0.18,0.02 0.29,0.05 0.29,0.34 0.31,0.58 0.02,0.24 0.01,0.49 -0.02,0.73 -0.03,0.2 -0.08,0.37 -0.32,0.39 -0.29,0.02 -0.57,0.03 -0.86,0.03 0,0 0,0 -0.01,0l0 0zm-0.3 -0.51c0.22,-0.13 0.43,-0.25 0.65,-0.37 -0.22,-0.13 -0.44,-0.25 -0.65,-0.38l0 0.75z"/>
 </g>
</svg>
